# xmcd
#
# Track frame offsets: 
#        150
#        40880
#        95010
#        130831
#        149838
#        176965
#        202146
#        205601
#        225359
#        243172
#        262263
#        294025
#
# Disc length: 4164 seconds
#
# Revision: 0
# Processed by: cddbd v1.5.2PL0 Copyright (c) Steve Scherf et al.
# Submitted via: ExactAudioCopy v0.95a5
#
DISCID=b610420c
DTITLE=Jimi Hendrix - Live in Scandinavia CD5
DYEAR=1970
DGENRE=Blues
TTITLE0=Drum Solo (Stockholm 1970-08-31)
TTITLE1=Message To Love (Stockholm 1970-08-31)
TTITLE2=Machine Gun (Stockholm 1970-08-31)
TTITLE3=Voodoo Child (Stockholm 1970-08-31)
TTITLE4=In From The Storm (Stockholm 1970-08-31)
TTITLE5=Purple haze (Stockholm 1970-08-31)
TTITLE6=Foxy Lady (Stockholm 1970-08-31)
TTITLE7=Stone Free (Copenhagen 1970-09-03)
TTITLE8=Foxy Lady (Copenhagen 1970-09-03)
TTITLE9=Message To Love (Copenhagen 1970-09-03)
TTITLE10=Hey Baby (Copenhagen 1970-09-03)
TTITLE11=Al Along The Watchtower (Copenhagen 1970-09-03)
EXTD=
EXTT0=
EXTT1=
EXTT2=
EXTT3=
EXTT4=
EXTT5=
EXTT6=
EXTT7=
EXTT8=
EXTT9=
EXTT10=
EXTT11=
PLAYORDER=
